<mxfile host="app.diagrams.net" modified="2021-08-06T10:02:47.624Z" agent="5.0 (X11; Linux x86_64) AppleWebKit/537.36 (KHTML, like Gecko) Chrome/92.0.4515.107 Safari/537.36" etag="2gzt7mZ4nWXYDDTj45Xr" version="14.9.4" type="github">
  <diagram id="lUdVYWXdnTRO3RgsZD_Y" name="Page-1">
    <mxGraphModel dx="1185" dy="615" grid="1" gridSize="10" guides="1" tooltips="1" connect="1" arrows="1" fold="1" page="1" pageScale="1" pageWidth="850" pageHeight="1100" math="0" shadow="0">
      <root>
        <mxCell id="0" />
        <mxCell id="1" parent="0" />
        <mxCell id="rCvpR9fvvfQFQ7dnOpYS-3" value="User&lt;br&gt;" style="swimlane;html=1;fontStyle=1;align=center;verticalAlign=top;childLayout=stackLayout;horizontal=1;startSize=26;horizontalStack=0;resizeParent=1;resizeLast=0;collapsible=1;marginBottom=0;swimlaneFillColor=#ffffff;rounded=0;shadow=0;comic=0;labelBackgroundColor=none;strokeWidth=1;fillColor=none;fontFamily=Verdana;fontSize=12" vertex="1" parent="1">
          <mxGeometry x="60" y="40" width="210" height="420" as="geometry" />
        </mxCell>
        <mxCell id="rCvpR9fvvfQFQ7dnOpYS-4" value="+ phoneNumber: String" style="text;html=1;strokeColor=none;fillColor=none;align=left;verticalAlign=top;spacingLeft=4;spacingRight=4;whiteSpace=wrap;overflow=hidden;rotatable=0;points=[[0,0.5],[1,0.5]];portConstraint=eastwest;" vertex="1" parent="rCvpR9fvvfQFQ7dnOpYS-3">
          <mxGeometry y="26" width="210" height="26" as="geometry" />
        </mxCell>
        <mxCell id="rCvpR9fvvfQFQ7dnOpYS-5" value="+ LastDate: String" style="text;html=1;strokeColor=none;fillColor=none;align=left;verticalAlign=top;spacingLeft=4;spacingRight=4;whiteSpace=wrap;overflow=hidden;rotatable=0;points=[[0,0.5],[1,0.5]];portConstraint=eastwest;" vertex="1" parent="rCvpR9fvvfQFQ7dnOpYS-3">
          <mxGeometry y="52" width="210" height="26" as="geometry" />
        </mxCell>
        <mxCell id="rCvpR9fvvfQFQ7dnOpYS-6" value="+ status: boolean" style="text;html=1;strokeColor=none;fillColor=none;align=left;verticalAlign=top;spacingLeft=4;spacingRight=4;whiteSpace=wrap;overflow=hidden;rotatable=0;points=[[0,0.5],[1,0.5]];portConstraint=eastwest;" vertex="1" parent="rCvpR9fvvfQFQ7dnOpYS-3">
          <mxGeometry y="78" width="210" height="26" as="geometry" />
        </mxCell>
        <mxCell id="rCvpR9fvvfQFQ7dnOpYS-7" value="+ check-in-no: String" style="text;html=1;strokeColor=none;fillColor=none;align=left;verticalAlign=top;spacingLeft=4;spacingRight=4;whiteSpace=wrap;overflow=hidden;rotatable=0;points=[[0,0.5],[1,0.5]];portConstraint=eastwest;" vertex="1" parent="rCvpR9fvvfQFQ7dnOpYS-3">
          <mxGeometry y="104" width="210" height="26" as="geometry" />
        </mxCell>
        <mxCell id="rCvpR9fvvfQFQ7dnOpYS-8" value="+ level: String" style="text;html=1;strokeColor=none;fillColor=none;align=left;verticalAlign=top;spacingLeft=4;spacingRight=4;whiteSpace=wrap;overflow=hidden;rotatable=0;points=[[0,0.5],[1,0.5]];portConstraint=eastwest;" vertex="1" parent="rCvpR9fvvfQFQ7dnOpYS-3">
          <mxGeometry y="130" width="210" height="26" as="geometry" />
        </mxCell>
        <mxCell id="rCvpR9fvvfQFQ7dnOpYS-9" value="+ check-in-date: Array[string]" style="text;html=1;strokeColor=none;fillColor=none;align=left;verticalAlign=top;spacingLeft=4;spacingRight=4;whiteSpace=wrap;overflow=hidden;rotatable=0;points=[[0,0.5],[1,0.5]];portConstraint=eastwest;" vertex="1" parent="rCvpR9fvvfQFQ7dnOpYS-3">
          <mxGeometry y="156" width="210" height="34" as="geometry" />
        </mxCell>
        <mxCell id="rCvpR9fvvfQFQ7dnOpYS-16" value="+ role: String" style="text;html=1;strokeColor=none;fillColor=none;align=left;verticalAlign=top;spacingLeft=4;spacingRight=4;whiteSpace=wrap;overflow=hidden;rotatable=0;points=[[0,0.5],[1,0.5]];portConstraint=eastwest;" vertex="1" parent="rCvpR9fvvfQFQ7dnOpYS-3">
          <mxGeometry y="190" width="210" height="34" as="geometry" />
        </mxCell>
        <mxCell id="rCvpR9fvvfQFQ7dnOpYS-17" value="+ phoneToken: String&lt;br&gt;" style="text;html=1;strokeColor=none;fillColor=none;align=left;verticalAlign=top;spacingLeft=4;spacingRight=4;whiteSpace=wrap;overflow=hidden;rotatable=0;points=[[0,0.5],[1,0.5]];portConstraint=eastwest;" vertex="1" parent="rCvpR9fvvfQFQ7dnOpYS-3">
          <mxGeometry y="224" width="210" height="34" as="geometry" />
        </mxCell>
        <mxCell id="rCvpR9fvvfQFQ7dnOpYS-18" value="+ phoneToken: String&lt;br&gt;" style="text;html=1;strokeColor=none;fillColor=none;align=left;verticalAlign=top;spacingLeft=4;spacingRight=4;whiteSpace=wrap;overflow=hidden;rotatable=0;points=[[0,0.5],[1,0.5]];portConstraint=eastwest;" vertex="1" parent="rCvpR9fvvfQFQ7dnOpYS-3">
          <mxGeometry y="258" width="210" height="34" as="geometry" />
        </mxCell>
        <mxCell id="rCvpR9fvvfQFQ7dnOpYS-19" value="+ createdAt: Datetime&lt;br&gt;" style="text;html=1;strokeColor=none;fillColor=none;align=left;verticalAlign=top;spacingLeft=4;spacingRight=4;whiteSpace=wrap;overflow=hidden;rotatable=0;points=[[0,0.5],[1,0.5]];portConstraint=eastwest;" vertex="1" parent="rCvpR9fvvfQFQ7dnOpYS-3">
          <mxGeometry y="292" width="210" height="34" as="geometry" />
        </mxCell>
        <mxCell id="rCvpR9fvvfQFQ7dnOpYS-10" value="" style="line;html=1;strokeWidth=1;fillColor=none;align=left;verticalAlign=middle;spacingTop=-1;spacingLeft=3;spacingRight=3;rotatable=0;labelPosition=right;points=[];portConstraint=eastwest;" vertex="1" parent="rCvpR9fvvfQFQ7dnOpYS-3">
          <mxGeometry y="326" width="210" height="8" as="geometry" />
        </mxCell>
        <mxCell id="rCvpR9fvvfQFQ7dnOpYS-12" value="+ Vouchers&lt;br&gt;" style="text;html=1;strokeColor=none;fillColor=none;align=left;verticalAlign=top;spacingLeft=4;spacingRight=4;whiteSpace=wrap;overflow=hidden;rotatable=0;points=[[0,0.5],[1,0.5]];portConstraint=eastwest;" vertex="1" parent="rCvpR9fvvfQFQ7dnOpYS-3">
          <mxGeometry y="334" width="210" height="26" as="geometry" />
        </mxCell>
        <mxCell id="rCvpR9fvvfQFQ7dnOpYS-11" value="+ Feedbacks&lt;br&gt;" style="text;html=1;strokeColor=none;fillColor=none;align=left;verticalAlign=top;spacingLeft=4;spacingRight=4;whiteSpace=wrap;overflow=hidden;rotatable=0;points=[[0,0.5],[1,0.5]];portConstraint=eastwest;" vertex="1" parent="rCvpR9fvvfQFQ7dnOpYS-3">
          <mxGeometry y="360" width="210" height="26" as="geometry" />
        </mxCell>
        <mxCell id="rCvpR9fvvfQFQ7dnOpYS-20" value="Voucher&lt;br&gt;" style="swimlane;html=1;fontStyle=1;align=center;verticalAlign=top;childLayout=stackLayout;horizontal=1;startSize=26;horizontalStack=0;resizeParent=1;resizeLast=0;collapsible=1;marginBottom=0;swimlaneFillColor=#ffffff;rounded=0;shadow=0;comic=0;labelBackgroundColor=none;strokeWidth=1;fillColor=none;fontFamily=Verdana;fontSize=12" vertex="1" parent="1">
          <mxGeometry x="380" y="40" width="210" height="210" as="geometry" />
        </mxCell>
        <mxCell id="rCvpR9fvvfQFQ7dnOpYS-21" value="+ name: String" style="text;html=1;strokeColor=none;fillColor=none;align=left;verticalAlign=top;spacingLeft=4;spacingRight=4;whiteSpace=wrap;overflow=hidden;rotatable=0;points=[[0,0.5],[1,0.5]];portConstraint=eastwest;" vertex="1" parent="rCvpR9fvvfQFQ7dnOpYS-20">
          <mxGeometry y="26" width="210" height="26" as="geometry" />
        </mxCell>
        <mxCell id="rCvpR9fvvfQFQ7dnOpYS-22" value="+ expiredDate: DateTime" style="text;html=1;strokeColor=none;fillColor=none;align=left;verticalAlign=top;spacingLeft=4;spacingRight=4;whiteSpace=wrap;overflow=hidden;rotatable=0;points=[[0,0.5],[1,0.5]];portConstraint=eastwest;" vertex="1" parent="rCvpR9fvvfQFQ7dnOpYS-20">
          <mxGeometry y="52" width="210" height="26" as="geometry" />
        </mxCell>
        <mxCell id="rCvpR9fvvfQFQ7dnOpYS-23" value="+ usedDate: DateTIme" style="text;html=1;strokeColor=none;fillColor=none;align=left;verticalAlign=top;spacingLeft=4;spacingRight=4;whiteSpace=wrap;overflow=hidden;rotatable=0;points=[[0,0.5],[1,0.5]];portConstraint=eastwest;" vertex="1" parent="rCvpR9fvvfQFQ7dnOpYS-20">
          <mxGeometry y="78" width="210" height="26" as="geometry" />
        </mxCell>
        <mxCell id="rCvpR9fvvfQFQ7dnOpYS-24" value="+ status: Boolean&lt;br&gt;" style="text;html=1;strokeColor=none;fillColor=none;align=left;verticalAlign=top;spacingLeft=4;spacingRight=4;whiteSpace=wrap;overflow=hidden;rotatable=0;points=[[0,0.5],[1,0.5]];portConstraint=eastwest;" vertex="1" parent="rCvpR9fvvfQFQ7dnOpYS-20">
          <mxGeometry y="104" width="210" height="26" as="geometry" />
        </mxCell>
        <mxCell id="rCvpR9fvvfQFQ7dnOpYS-30" value="+ createdAt: Datetime&lt;br&gt;" style="text;html=1;strokeColor=none;fillColor=none;align=left;verticalAlign=top;spacingLeft=4;spacingRight=4;whiteSpace=wrap;overflow=hidden;rotatable=0;points=[[0,0.5],[1,0.5]];portConstraint=eastwest;" vertex="1" parent="rCvpR9fvvfQFQ7dnOpYS-20">
          <mxGeometry y="130" width="210" height="34" as="geometry" />
        </mxCell>
        <mxCell id="rCvpR9fvvfQFQ7dnOpYS-31" value="" style="line;html=1;strokeWidth=1;fillColor=none;align=left;verticalAlign=middle;spacingTop=-1;spacingLeft=3;spacingRight=3;rotatable=0;labelPosition=right;points=[];portConstraint=eastwest;" vertex="1" parent="rCvpR9fvvfQFQ7dnOpYS-20">
          <mxGeometry y="164" width="210" height="8" as="geometry" />
        </mxCell>
        <mxCell id="rCvpR9fvvfQFQ7dnOpYS-35" value="Feedback&lt;br&gt;" style="swimlane;html=1;fontStyle=1;align=center;verticalAlign=top;childLayout=stackLayout;horizontal=1;startSize=26;horizontalStack=0;resizeParent=1;resizeLast=0;collapsible=1;marginBottom=0;swimlaneFillColor=#ffffff;rounded=0;shadow=0;comic=0;labelBackgroundColor=none;strokeWidth=1;fillColor=none;fontFamily=Verdana;fontSize=12" vertex="1" parent="1">
          <mxGeometry x="390" y="310" width="210" height="210" as="geometry" />
        </mxCell>
        <mxCell id="rCvpR9fvvfQFQ7dnOpYS-36" value="+ nameFood: String" style="text;html=1;strokeColor=none;fillColor=none;align=left;verticalAlign=top;spacingLeft=4;spacingRight=4;whiteSpace=wrap;overflow=hidden;rotatable=0;points=[[0,0.5],[1,0.5]];portConstraint=eastwest;" vertex="1" parent="rCvpR9fvvfQFQ7dnOpYS-35">
          <mxGeometry y="26" width="210" height="26" as="geometry" />
        </mxCell>
        <mxCell id="rCvpR9fvvfQFQ7dnOpYS-37" value="+ Rating: String" style="text;html=1;strokeColor=none;fillColor=none;align=left;verticalAlign=top;spacingLeft=4;spacingRight=4;whiteSpace=wrap;overflow=hidden;rotatable=0;points=[[0,0.5],[1,0.5]];portConstraint=eastwest;" vertex="1" parent="rCvpR9fvvfQFQ7dnOpYS-35">
          <mxGeometry y="52" width="210" height="26" as="geometry" />
        </mxCell>
        <mxCell id="rCvpR9fvvfQFQ7dnOpYS-38" value="+ Content: String" style="text;html=1;strokeColor=none;fillColor=none;align=left;verticalAlign=top;spacingLeft=4;spacingRight=4;whiteSpace=wrap;overflow=hidden;rotatable=0;points=[[0,0.5],[1,0.5]];portConstraint=eastwest;" vertex="1" parent="rCvpR9fvvfQFQ7dnOpYS-35">
          <mxGeometry y="78" width="210" height="26" as="geometry" />
        </mxCell>
        <mxCell id="rCvpR9fvvfQFQ7dnOpYS-40" value="+ createdAt: Datetime&lt;br&gt;" style="text;html=1;strokeColor=none;fillColor=none;align=left;verticalAlign=top;spacingLeft=4;spacingRight=4;whiteSpace=wrap;overflow=hidden;rotatable=0;points=[[0,0.5],[1,0.5]];portConstraint=eastwest;" vertex="1" parent="rCvpR9fvvfQFQ7dnOpYS-35">
          <mxGeometry y="104" width="210" height="34" as="geometry" />
        </mxCell>
        <mxCell id="rCvpR9fvvfQFQ7dnOpYS-41" value="" style="line;html=1;strokeWidth=1;fillColor=none;align=left;verticalAlign=middle;spacingTop=-1;spacingLeft=3;spacingRight=3;rotatable=0;labelPosition=right;points=[];portConstraint=eastwest;" vertex="1" parent="rCvpR9fvvfQFQ7dnOpYS-35">
          <mxGeometry y="138" width="210" height="8" as="geometry" />
        </mxCell>
      </root>
    </mxGraphModel>
  </diagram>
</mxfile>
